<?xml version="1.0" encoding="utf-8"?>
<!-- Generator: Adobe Illustrator 18.1.1, SVG Export Plug-In . SVG Version: 6.00 Build 0)  -->
<svg version="1.1" id="Layer_1" xmlns="http://www.w3.org/2000/svg" xmlns:xlink="http://www.w3.org/1999/xlink" x="0px" y="0px"
	 viewBox="0 0 612 792" enable-background="new 0 0 612 792" xml:space="preserve">
<g>
	<g>
		<linearGradient id="SVGID_1_" gradientUnits="userSpaceOnUse" x1="306" y1="661.5" x2="306" y2="130.5">
			<stop  offset="0" style="stop-color:#FFFFFF"/>
			<stop  offset="1.042837e-02" style="stop-color:#FEFBF7"/>
			<stop  offset="8.782494e-02" style="stop-color:#F9E2C4"/>
			<stop  offset="0.1706" style="stop-color:#F5CA96"/>
			<stop  offset="0.2569" style="stop-color:#F1B66D"/>
			<stop  offset="0.3474" style="stop-color:#EDA64B"/>
			<stop  offset="0.4436" style="stop-color:#EB9830"/>
			<stop  offset="0.5471" style="stop-color:#E98D1B"/>
			<stop  offset="0.6619" style="stop-color:#E7860C"/>
			<stop  offset="0.7965" style="stop-color:#E68103"/>
			<stop  offset="1" style="stop-color:#E68000"/>
		</linearGradient>
		<path fill="url(#SVGID_1_)" d="M306,130.5c-169,0-306,137-306,306c0,88.8,37.9,169,98.6,225C210.1,589.4,248.3,478,258,451.1
			c21.1-58.7,35.6-72.7,46-72c11.1,0.7,16.2,20.6,36,72.9c0,0,11,29.1,34,84c14.9,35.5,49.6,82.1,139.4,125.5
			c22.5-21.2,65.1-67,86.2-138.6c8.1-27.4,12.4-56.4,12.4-86.4C612,267.5,475,130.5,306,130.5z"/>
	</g>
</g>
<line fill="none" x1="354.7" y1="433.2" x2="352" y2="438.7"/>
</svg>
